<svg width="47" height="46" viewBox="0 0 47 46" fill="none" xmlns="http://www.w3.org/2000/svg">
<g clip-path="url(#clip0_1_87)">
<path d="M23.4999 7.66675C15.0452 7.66675 8.1665 14.5455 8.1665 23.0001C8.1665 31.4548 15.0452 38.3335 23.4999 38.3335C31.9545 38.3335 38.8332 31.4548 38.8332 23.0001C38.8332 14.5455 31.9545 7.66675 23.4999 7.66675ZM31.3444 13.3943C31.5166 13.2025 31.7599 13.0892 32.0182 13.0789C32.2409 13.0537 32.5274 13.1622 32.7145 13.34C34.7023 15.2221 36.0537 17.6179 36.6189 20.2683C36.7088 20.6913 36.5047 21.1218 36.121 21.3202C35.1832 21.805 34.0696 22.0399 33.0027 22.0399C31.612 22.0399 30.2943 21.6411 29.5306 20.8775C27.906 19.2538 28.5835 16.4565 31.3444 13.3943ZM15.6554 32.7556C15.4832 32.9474 15.2399 33.0616 14.9816 33.072C14.9704 33.0729 14.9573 33.0729 14.9441 33.0729C14.699 33.0729 14.4631 32.9792 14.2853 32.8108C12.2975 30.9287 10.9461 28.5329 10.3809 25.8816C10.291 25.4586 10.4951 25.0281 10.8788 24.8297C13.0388 23.7151 16.1197 23.9228 17.4692 25.2723C19.092 26.8962 18.4144 29.6935 15.6554 32.7556ZM17.4691 20.8776C16.7054 21.6412 15.3877 22.04 13.997 22.04C12.9301 22.04 11.8183 21.805 10.8787 21.3203C10.495 21.1219 10.291 20.6914 10.3808 20.2684C10.9461 17.618 12.2974 15.2222 14.2852 13.3401C14.4724 13.1623 14.7476 13.0519 14.9815 13.079C15.2398 13.0894 15.4831 13.2026 15.6553 13.3944C18.4162 16.4565 19.0938 19.2538 17.4691 20.8776ZM27.584 35.7795C26.2569 36.2025 24.883 36.4168 23.4999 36.4168C22.1167 36.4168 20.7427 36.2026 19.4158 35.7795C18.9946 35.6447 18.7195 35.2404 18.7494 34.7997C18.989 31.3509 21.031 28.7501 23.4999 28.7501C25.9687 28.7501 28.0107 31.3509 28.2504 34.7996C28.2803 35.2404 28.0052 35.6447 27.584 35.7795ZM19.6665 23.0001C19.6665 20.886 21.3867 19.1667 23.4999 19.1667C25.6131 19.1667 27.3332 20.8859 27.3332 23.0001C27.3332 25.1143 25.6131 26.8335 23.4999 26.8335C21.3867 26.8335 19.6665 25.1142 19.6665 23.0001ZM28.2504 11.2764C28.0107 14.7242 25.9687 17.325 23.4999 17.325C21.031 17.325 18.989 14.7242 18.7494 11.2764C18.7195 10.8356 18.9927 10.4313 19.4139 10.2975C22.068 9.44952 24.9318 9.44952 27.5859 10.2975C28.0071 10.4313 28.2803 10.8356 28.2504 11.2764ZM36.6189 25.7291C36.0536 28.3804 34.7023 30.7763 32.7145 32.6583C32.5367 32.8268 32.3009 32.9204 32.0557 32.9204C32.0426 32.9204 32.0295 32.9204 32.0182 32.9195C31.7599 32.9092 31.5166 32.796 31.3444 32.6041C28.5836 29.542 27.906 26.7437 29.5306 25.12C30.8802 23.7695 33.9592 23.5645 36.121 24.6773C36.5047 24.8756 36.7088 25.3061 36.6189 25.7291Z" fill="black"/>
<path d="M23.5 0C10.817 0 0.5 10.318 0.5 23C0.5 35.682 10.817 46 23.5 46C36.183 46 46.5 35.682 46.5 23C46.5 10.318 36.183 0 23.5 0ZM23.5 40.25C13.9878 40.25 6.25 32.5113 6.25 23C6.25 13.4887 13.9878 5.75 23.5 5.75C33.0122 5.75 40.75 13.4887 40.75 23C40.75 32.5113 33.0122 40.25 23.5 40.25Z" fill="black"/>
</g>
<defs>
<clipPath id="clip0_1_87">
<rect width="46" height="46" fill="white" transform="translate(0.5)"/>
</clipPath>
</defs>
</svg>
